<svg width="352" height="392" viewBox="0 0 352 392" fill="none" xmlns="http://www.w3.org/2000/svg">
<path fill-rule="evenodd" clip-rule="evenodd" d="M168.68 1.8709C157.086 7.8329 157.112 23.7829 168.724 29.7079C173.751 32.2719 177.227 32.2039 182.718 29.4349C185.978 27.7909 187.786 25.9829 189.43 22.7229C192.199 17.2319 192.267 13.7559 189.703 8.72889C185.572 0.632894 176.71 -2.2591 168.68 1.8709ZM128.68 41.8709C117.086 47.8329 117.112 63.7829 128.724 69.7079C133.751 72.2719 137.227 72.2039 142.718 69.4349C145.978 67.7909 147.786 65.9829 149.43 62.7229C152.199 57.2319 152.267 53.7559 149.703 48.7289C145.572 40.6329 136.71 37.7409 128.68 41.8709ZM168.68 41.8709C157.086 47.8329 157.112 63.7829 168.724 69.7079C173.751 72.2719 177.227 72.2039 182.718 69.4349C185.978 67.7909 187.786 65.9829 189.43 62.7229C192.199 57.2319 192.267 53.7559 189.703 48.7289C185.572 40.6329 176.71 37.7409 168.68 41.8709ZM208.68 41.8709C197.086 47.8329 197.112 63.7829 208.724 69.7079C213.751 72.2719 217.227 72.2039 222.718 69.4349C225.978 67.7909 227.786 65.9829 229.43 62.7229C232.199 57.2319 232.267 53.7559 229.703 48.7289C225.572 40.6329 216.71 37.7409 208.68 41.8709ZM88.6803 81.8709C77.0863 87.8329 77.1123 103.783 88.7243 109.708C93.7513 112.272 97.2273 112.204 102.718 109.435C105.978 107.791 107.786 105.983 109.43 102.723C112.199 97.2319 112.267 93.7559 109.703 88.7289C105.572 80.6329 96.7103 77.7409 88.6803 81.8709ZM128.68 81.8709C117.086 87.8329 117.112 103.783 128.724 109.708C133.751 112.272 137.227 112.204 142.718 109.435C145.978 107.791 147.786 105.983 149.43 102.723C152.199 97.2319 152.267 93.7559 149.703 88.7289C145.572 80.6329 136.71 77.7409 128.68 81.8709ZM168.68 81.8709C157.086 87.8329 157.112 103.783 168.724 109.708C173.751 112.272 177.227 112.204 182.718 109.435C185.978 107.791 187.786 105.983 189.43 102.723C192.199 97.2319 192.267 93.7559 189.703 88.7289C185.572 80.6329 176.71 77.7409 168.68 81.8709ZM208.68 81.8709C197.086 87.8329 197.112 103.783 208.724 109.708C213.751 112.272 217.227 112.204 222.718 109.435C225.978 107.791 227.786 105.983 229.43 102.723C232.199 97.2319 232.267 93.7559 229.703 88.7289C225.572 80.6329 216.71 77.7409 208.68 81.8709ZM248.68 81.8709C237.086 87.8329 237.112 103.783 248.724 109.708C253.751 112.272 257.227 112.204 262.718 109.435C265.978 107.791 267.786 105.983 269.43 102.723C272.199 97.2319 272.267 93.7559 269.703 88.7289C265.572 80.6329 256.71 77.7409 248.68 81.8709ZM48.6803 121.871C37.0863 127.833 37.1123 143.783 48.7243 149.708C53.7513 152.272 57.2273 152.204 62.7183 149.435C65.9783 147.791 67.7863 145.983 69.4303 142.723C72.1993 137.232 72.2673 133.756 69.7033 128.729C65.5723 120.633 56.7103 117.741 48.6803 121.871ZM88.6803 121.871C77.0863 127.833 77.1123 143.783 88.7243 149.708C93.7513 152.272 97.2273 152.204 102.718 149.435C105.978 147.791 107.786 145.983 109.43 142.723C112.199 137.232 112.267 133.756 109.703 128.729C105.572 120.633 96.7103 117.741 88.6803 121.871ZM128.68 121.871C117.086 127.833 117.112 143.783 128.724 149.708C133.751 152.272 137.227 152.204 142.718 149.435C145.978 147.791 147.786 145.983 149.43 142.723C152.199 137.232 152.267 133.756 149.703 128.729C145.572 120.633 136.71 117.741 128.68 121.871ZM168.68 121.871C157.086 127.833 157.112 143.783 168.724 149.708C173.751 152.272 177.227 152.204 182.718 149.435C185.978 147.791 187.786 145.983 189.43 142.723C192.199 137.232 192.267 133.756 189.703 128.729C185.572 120.633 176.71 117.741 168.68 121.871ZM208.68 121.871C197.086 127.833 197.112 143.783 208.724 149.708C213.751 152.272 217.227 152.204 222.718 149.435C225.978 147.791 227.786 145.983 229.43 142.723C232.199 137.232 232.267 133.756 229.703 128.729C225.572 120.633 216.71 117.741 208.68 121.871ZM248.68 121.871C237.086 127.833 237.112 143.783 248.724 149.708C253.751 152.272 257.227 152.204 262.718 149.435C265.978 147.791 267.786 145.983 269.43 142.723C272.199 137.232 272.267 133.756 269.703 128.729C265.572 120.633 256.71 117.741 248.68 121.871ZM288.68 121.871C277.086 127.833 277.112 143.783 288.724 149.708C293.751 152.272 297.227 152.204 302.718 149.435C305.978 147.791 307.786 145.983 309.43 142.723C312.199 137.232 312.267 133.756 309.703 128.729C305.572 120.633 296.71 117.741 288.68 121.871ZM8.68027 161.871C-2.91373 167.833 -2.88773 183.783 8.72427 189.708C13.7513 192.272 17.2273 192.204 22.7183 189.435C25.9783 187.791 27.7863 185.983 29.4303 182.723C32.1993 177.232 32.2673 173.756 29.7033 168.729C25.5723 160.633 16.7103 157.741 8.68027 161.871ZM48.6803 161.871C37.0863 167.833 37.1123 183.783 48.7243 189.708C53.7513 192.272 57.2273 192.204 62.7183 189.435C65.9783 187.791 67.7863 185.983 69.4303 182.723C72.1993 177.232 72.2673 173.756 69.7033 168.729C65.5723 160.633 56.7103 157.741 48.6803 161.871ZM88.6803 161.871C77.0863 167.833 77.1123 183.783 88.7243 189.708C93.7513 192.272 97.2273 192.204 102.718 189.435C105.978 187.791 107.786 185.983 109.43 182.723C112.199 177.232 112.267 173.756 109.703 168.729C105.572 160.633 96.7103 157.741 88.6803 161.871ZM128.68 161.871C117.086 167.833 117.112 183.783 128.724 189.708C133.751 192.272 137.227 192.204 142.718 189.435C145.978 187.791 147.786 185.983 149.43 182.723C152.199 177.232 152.267 173.756 149.703 168.729C145.572 160.633 136.71 157.741 128.68 161.871ZM168.68 161.871C157.086 167.833 157.112 183.783 168.724 189.708C173.751 192.272 177.227 192.204 182.718 189.435C185.978 187.791 187.786 185.983 189.43 182.723C192.199 177.232 192.267 173.756 189.703 168.729C185.572 160.633 176.71 157.741 168.68 161.871ZM208.68 161.871C197.086 167.833 197.112 183.783 208.724 189.708C213.751 192.272 217.227 192.204 222.718 189.435C225.978 187.791 227.786 185.983 229.43 182.723C232.199 177.232 232.267 173.756 229.703 168.729C225.572 160.633 216.71 157.741 208.68 161.871ZM248.68 161.871C237.086 167.833 237.112 183.783 248.724 189.708C253.751 192.272 257.227 192.204 262.718 189.435C265.978 187.791 267.786 185.983 269.43 182.723C272.199 177.232 272.267 173.756 269.703 168.729C265.572 160.633 256.71 157.741 248.68 161.871ZM288.68 161.871C277.086 167.833 277.112 183.783 288.724 189.708C293.751 192.272 297.227 192.204 302.718 189.435C305.978 187.791 307.786 185.983 309.43 182.723C312.199 177.232 312.267 173.756 309.703 168.729C305.572 160.633 296.71 157.741 288.68 161.871ZM328.68 161.871C317.086 167.833 317.112 183.783 328.724 189.708C333.751 192.272 337.227 192.204 342.718 189.435C345.978 187.791 347.786 185.983 349.43 182.723C352.199 177.232 352.267 173.756 349.703 168.729C345.572 160.633 336.71 157.741 328.68 161.871ZM128.68 201.871C117.086 207.833 117.112 223.783 128.724 229.708C133.751 232.272 137.227 232.204 142.718 229.435C145.978 227.791 147.786 225.983 149.43 222.723C152.199 217.232 152.267 213.756 149.703 208.729C145.572 200.633 136.71 197.741 128.68 201.871ZM168.68 201.871C157.086 207.833 157.112 223.783 168.724 229.708C173.751 232.272 177.227 232.204 182.718 229.435C185.978 227.791 187.786 225.983 189.43 222.723C192.199 217.232 192.267 213.756 189.703 208.729C185.572 200.633 176.71 197.741 168.68 201.871ZM208.68 201.871C197.086 207.833 197.112 223.783 208.724 229.708C213.751 232.272 217.227 232.204 222.718 229.435C225.978 227.791 227.786 225.983 229.43 222.723C232.199 217.232 232.267 213.756 229.703 208.729C225.572 200.633 216.71 197.741 208.68 201.871ZM128.68 241.871C117.086 247.833 117.112 263.783 128.724 269.708C133.751 272.272 137.227 272.204 142.718 269.435C145.978 267.791 147.786 265.983 149.43 262.723C152.199 257.232 152.267 253.756 149.703 248.729C145.572 240.633 136.71 237.741 128.68 241.871ZM168.68 241.871C157.086 247.833 157.112 263.783 168.724 269.708C173.751 272.272 177.227 272.204 182.718 269.435C185.978 267.791 187.786 265.983 189.43 262.723C192.199 257.232 192.267 253.756 189.703 248.729C185.572 240.633 176.71 237.741 168.68 241.871ZM208.68 241.871C197.086 247.833 197.112 263.783 208.724 269.708C213.751 272.272 217.227 272.204 222.718 269.435C225.978 267.791 227.786 265.983 229.43 262.723C232.199 257.232 232.267 253.756 229.703 248.729C225.572 240.633 216.71 237.741 208.68 241.871ZM128.68 281.871C117.086 287.833 117.112 303.783 128.724 309.708C133.751 312.272 137.227 312.204 142.718 309.435C145.978 307.791 147.786 305.983 149.43 302.723C152.199 297.232 152.267 293.756 149.703 288.729C145.572 280.633 136.71 277.741 128.68 281.871ZM168.68 281.871C157.086 287.833 157.112 303.783 168.724 309.708C173.751 312.272 177.227 312.204 182.718 309.435C185.978 307.791 187.786 305.983 189.43 302.723C192.199 297.232 192.267 293.756 189.703 288.729C185.572 280.633 176.71 277.741 168.68 281.871ZM208.68 281.871C197.086 287.833 197.112 303.783 208.724 309.708C213.751 312.272 217.227 312.204 222.718 309.435C225.978 307.791 227.786 305.983 229.43 302.723C232.199 297.232 232.267 293.756 229.703 288.729C225.572 280.633 216.71 277.741 208.68 281.871ZM128.68 321.871C117.086 327.833 117.112 343.783 128.724 349.708C133.751 352.272 137.227 352.204 142.718 349.435C145.978 347.791 147.786 345.983 149.43 342.723C152.199 337.232 152.267 333.756 149.703 328.729C145.572 320.633 136.71 317.741 128.68 321.871ZM168.68 321.871C157.086 327.833 157.112 343.783 168.724 349.708C173.751 352.272 177.227 352.204 182.718 349.435C185.978 347.791 187.786 345.983 189.43 342.723C192.199 337.232 192.267 333.756 189.703 328.729C185.572 320.633 176.71 317.741 168.68 321.871ZM208.68 321.871C197.086 327.833 197.112 343.783 208.724 349.708C213.751 352.272 217.227 352.204 222.718 349.435C225.978 347.791 227.786 345.983 229.43 342.723C232.199 337.232 232.267 333.756 229.703 328.729C225.572 320.633 216.71 317.741 208.68 321.871ZM128.68 361.871C117.086 367.833 117.112 383.783 128.724 389.708C133.751 392.272 137.227 392.204 142.718 389.435C145.978 387.791 147.786 385.983 149.43 382.723C152.199 377.232 152.267 373.756 149.703 368.729C145.572 360.633 136.71 357.741 128.68 361.871ZM168.68 361.871C157.086 367.833 157.112 383.783 168.724 389.708C173.751 392.272 177.227 392.204 182.718 389.435C185.978 387.791 187.786 385.983 189.43 382.723C192.199 377.232 192.267 373.756 189.703 368.729C185.572 360.633 176.71 357.741 168.68 361.871ZM208.68 361.871C197.086 367.833 197.112 383.783 208.724 389.708C213.751 392.272 217.227 392.204 222.718 389.435C225.978 387.791 227.786 385.983 229.43 382.723C232.199 377.232 232.267 373.756 229.703 368.729C225.572 360.633 216.71 357.741 208.68 361.871Z" fill="#FF6118"/>
</svg>
